<svg width="1280" height="800" viewBox="0 0 1280 800" xmlns="http://www.w3.org/2000/svg">
  <rect width="1280" height="800" fill="#F9FAFB"/>
  
  <!-- Report Header -->
  <rect x="200" y="40" width="880" height="720" rx="12" fill="white" stroke="#E5E7EB"/>
  
  <!-- Title Section -->
  <rect x="200" y="40" width="880" height="120" rx="12 12 0 0" fill="#4F46E5"/>
  <text x="640" y="90" font-family="Arial" font-size="32" font-weight="bold" fill="white" text-anchor="middle">Financial Report</text>
  <text x="640" y="120" font-family="Arial" font-size="18" fill="white" opacity="0.8" text-anchor="middle">January 2025 • Generated by AI</text>
  
  <!-- Executive Summary -->
  <text x="240" y="200" font-family="Arial" font-size="20" font-weight="bold" fill="#1F2937">Executive Summary</text>
  
  <g transform="translate(240, 220)">
    <rect x="0" y="0" width="800" height="80" rx="8" fill="#F0FDF4"/>
    <circle cx="40" cy="40" r="24" fill="#10B981"/>
    <text x="40" y="47" font-family="Arial" font-size="24" fill="white" text-anchor="middle">↑</text>
    <text x="80" y="30" font-family="Arial" font-size="16" font-weight="bold" fill="#1F2937">Financial Health: Excellent</text>
    <text x="80" y="55" font-family="Arial" font-size="14" fill="#6B7280">You saved 26% of income this month, exceeding your 20% goal</text>
  </g>
  
  <!-- Key Metrics Grid -->
  <text x="240" y="340" font-family="Arial" font-size="18" font-weight="bold" fill="#1F2937">Key Financial Metrics</text>
  
  <g transform="translate(240, 360)">
    <!-- Income -->
    <rect x="0" y="0" width="190" height="100" rx="8" fill="#EFF6FF"/>
    <text x="20" y="30" font-family="Arial" font-size="14" fill="#6B7280">Total Income</text>
    <text x="20" y="60" font-family="Arial" font-size="24" font-weight="bold" fill="#4F46E5">$8,450</text>
    <text x="20" y="85" font-family="Arial" font-size="12" fill="#10B981">+12% vs avg</text>
    
    <!-- Expenses -->
    <rect x="205" y="0" width="190" height="100" rx="8" fill="#FEF2F2"/>
    <text x="225" y="30" font-family="Arial" font-size="14" fill="#6B7280">Total Expenses</text>
    <text x="225" y="60" font-family="Arial" font-size="24" font-weight="bold" fill="#EF4444">$6,234</text>
    <text x="225" y="85" font-family="Arial" font-size="12" fill="#EF4444">+5% vs avg</text>
    
    <!-- Savings -->
    <rect x="410" y="0" width="190" height="100" rx="8" fill="#F0FDF4"/>
    <text x="430" y="30" font-family="Arial" font-size="14" fill="#6B7280">Net Savings</text>
    <text x="430" y="60" font-family="Arial" font-size="24" font-weight="bold" fill="#10B981">$2,216</text>
    <text x="430" y="85" font-family="Arial" font-size="12" fill="#10B981">26% rate</text>
    
    <!-- Anomalies -->
    <rect x="615" y="0" width="185" height="100" rx="8" fill="#FFFBEB"/>
    <text x="635" y="30" font-family="Arial" font-size="14" fill="#6B7280">Anomalies</text>
    <text x="635" y="60" font-family="Arial" font-size="24" font-weight="bold" fill="#F59E0B">3 Found</text>
    <text x="635" y="85" font-family="Arial" font-size="12" fill="#F59E0B">Review needed</text>
  </g>
  
  <!-- Spending Breakdown Chart -->
  <text x="240" y="500" font-family="Arial" font-size="18" font-weight="bold" fill="#1F2937">Spending by Category</text>
  
  <g transform="translate(240, 520)">
    <!-- Pie Chart -->
    <circle cx="150" cy="80" r="70" fill="#E5E7EB"/>
    <path d="M 150 10 A 70 70 0 0 1 220 80 L 150 80 Z" fill="#4F46E5"/>
    <path d="M 220 80 A 70 70 0 0 1 150 150 L 150 80 Z" fill="#10B981"/>
    <path d="M 150 150 A 70 70 0 0 1 80 80 L 150 80 Z" fill="#F59E0B"/>
    <path d="M 80 80 A 70 70 0 0 1 150 10 L 150 80 Z" fill="#EF4444"/>
    
    <!-- Legend -->
    <rect x="300" y="20" width="15" height="15" fill="#4F46E5"/>
    <text x="325" y="32" font-family="Arial" font-size="14" fill="#1F2937">Housing (35%): $2,182</text>
    
    <rect x="300" y="50" width="15" height="15" fill="#10B981"/>
    <text x="325" y="62" font-family="Arial" font-size="14" fill="#1F2937">Food & Dining (22%): $1,371</text>
    
    <rect x="300" y="80" width="15" height="15" fill="#F59E0B"/>
    <text x="325" y="92" font-family="Arial" font-size="14" fill="#1F2937">Transportation (18%): $1,122</text>
    
    <rect x="300" y="110" width="15" height="15" fill="#EF4444"/>
    <text x="325" y="122" font-family="Arial" font-size="14" fill="#1F2937">Shopping (25%): $1,559</text>
  </g>
  
  <!-- AI Recommendations -->
  <text x="240" y="700" font-family="Arial" font-size="18" font-weight="bold" fill="#1F2937">AI Recommendations</text>
  
  <g transform="translate(240, 720)">
    <text x="20" y="20" font-family="Arial" font-size="14" fill="#1F2937">1. Consider reducing dining out expenses by 20% to increase savings</text>
    <text x="20" y="45" font-family="Arial" font-size="14" fill="#1F2937">2. Review the $2,847 unusual transaction flagged on Jan 26</text>
    <text x="20" y="70" font-family="Arial" font-size="14" fill="#1F2937">3. Set up automatic transfer of $500/month to high-yield savings</text>
  </g>
  
  <!-- Export Options -->
  <rect x="940" y="700" width="100" height="40" rx="8" fill="#4F46E5"/>
  <text x="990" y="725" font-family="Arial" font-size="14" fill="white" text-anchor="middle">Export PDF</text>
  
  <!-- Description -->
  <text x="640" y="30" font-family="Arial" font-size="18" text-anchor="middle" fill="#6B7280" transform="translate(0, 750)">
    Screenshot 8: Professional AI-generated financial report with insights and recommendations
  </text>
</svg>